<?xml version="1.0" encoding="iso-8859-1"?>
<!-- Generator: Adobe Illustrator 16.0.0, SVG Export Plug-In . SVG Version: 6.00 Build 0)  -->
<!DOCTYPE svg PUBLIC "-//W3C//DTD SVG 1.1//EN" "http://www.w3.org/Graphics/SVG/1.1/DTD/svg11.dtd">
<svg width="22" height="22" viewBox="0 0 22 22" fill="white" xmlns="http://www.w3.org/2000/svg">
<g clip-path="url(#clip0)">
<path d="M21.7797 20.6695L13.9525 12.8423C16.7017 9.47994 16.2046 4.52556 12.8423 1.77634C9.47997 -0.972873 4.52555 -0.475789 1.77633 2.88654C-0.972889 6.24887 -0.475804 11.2033 2.88652 13.9525C5.78268 16.3205 9.94614 16.3205 12.8423 13.9525L20.6695 21.7797C20.9814 22.081 21.4785 22.0723 21.7797 21.7604C22.0735 21.4561 22.0735 20.9738 21.7797 20.6695ZM7.87697 14.1582C4.40957 14.1543 1.59962 11.3444 1.59576 7.87699C1.59576 4.40797 4.40796 1.59577 7.87697 1.59577C11.346 1.59577 14.1582 4.40797 14.1582 7.87699C14.1582 11.346 11.346 14.1582 7.87697 14.1582Z" fill="white"/>
</g>
<defs>
<clipPath id="clip0">
<rect width="22" height="22" fill="white"/>
</clipPath>
</defs>
</svg>
