<?xml version="1.0" encoding="iso-8859-1"?>
<!-- Generator: Adobe Illustrator 19.0.0, SVG Export Plug-In . SVG Version: 6.00 Build 0)  -->
<svg version="1.1" id="Capa_1" xmlns="http://www.w3.org/2000/svg" xmlns:xlink="http://www.w3.org/1999/xlink" x="0px" y="0px"
	 fill="#f2f2f2" viewBox="0 0 208.229 208.229" style="enable-background:new 0 0 208.229 208.229;" xml:space="preserve">
<g>
	<g>
		<path d="M196.633,40.976h-25.96c-1.884,0-3.413,1.529-3.413,3.413s1.529,3.413,3.413,3.413h25.96c1.685,0,3.055,1.372,3.055,3.057
			v123.595c0,1.685-1.37,3.055-3.055,3.055H11.596c-1.685,0-3.055-1.37-3.055-3.055V50.859c0-1.684,1.37-3.057,3.055-3.057h26.385
			c1.884,0,3.413-1.529,3.413-3.413s-1.529-3.413-3.413-3.413H11.596c-5.449,0-9.882,4.434-9.882,9.883v123.595
			c0,5.448,4.432,9.882,9.882,9.882h185.037c5.449,0,9.882-4.434,9.882-9.882V50.859C206.515,45.41,202.082,40.976,196.633,40.976z"
			/>
	</g>
</g>
<g>
	<g>
		<path d="M192.861,51.216h-20.598c-1.884,0-3.413,1.529-3.413,3.413s1.529,3.413,3.413,3.413h17.184v109.227H18.781V58.043h17.183
			c1.884,0,3.413-1.529,3.413-3.413s-1.529-3.413-3.413-3.413H15.368c-1.884,0-3.413,1.529-3.413,3.413v116.053
			c0,1.884,1.529,3.413,3.413,3.413h177.493c1.884,0,3.413-1.529,3.413-3.413V54.629C196.275,52.745,194.746,51.216,192.861,51.216z
			"/>
	</g>
</g>
<g>
	<g>
		<path d="M114.355,177.509h-20.48c-1.884,0-3.413,1.529-3.413,3.413v23.893c0,1.884,1.529,3.413,3.413,3.413h20.48
			c1.884,0,3.413-1.529,3.413-3.413v-23.893C117.768,179.038,116.239,177.509,114.355,177.509z M110.941,201.403H97.288v-17.067
			h13.653V201.403z"/>
	</g>
</g>
<g>
	<g>
		<path d="M138.248,201.403H69.981c-1.884,0-3.413,1.529-3.413,3.413c0,1.884,1.529,3.413,3.413,3.413h68.267
			c1.884,0,3.413-1.529,3.413-3.413C141.661,202.932,140.132,201.403,138.248,201.403z"/>
	</g>
</g>
<g>
	<g>
		<path d="M175.557,53.337c-0.717-2.654-1.401-5.243-2.068-7.762c-6.182-23.334-10.646-40.192-22.473-43.694
			c-4.668-1.382-14.384-4.26-24.863,1.958c-8.24,4.886-35.842,4.886-44.081,0C71.592-2.378,61.876,0.497,57.183,1.886
			C45.381,5.382,40.917,22.24,34.735,45.574c-0.666,2.519-1.352,5.108-2.068,7.762c-5.495,20.342-5.468,39.685,0.07,49.277
			c1.966,3.405,4.547,5.552,7.67,6.381c0.643,0.171,1.287,0.253,1.93,0.253c7.436,0,14.956-10.889,22.243-21.448
			c3.115-4.509,6.333-9.172,8.074-10.522c1.21-0.935,5.823-3.099,22.596-2.865l20.871-0.015c14.28,0.065,18.355,2.036,19.444,2.881
			c1.741,1.35,4.96,6.013,8.074,10.522c7.926,11.476,16.13,23.354,24.178,21.197c3.123-0.829,5.704-2.976,7.67-6.381
			C181.026,93.022,181.053,73.679,175.557,53.337z M169.581,99.195c-1.026,1.775-2.207,2.852-3.511,3.198
			c-3.424,0.874-12.802-12.679-16.807-18.478c-3.874-5.61-6.932-10.04-9.506-12.037c-2.342-1.816-7.335-4.239-23.617-4.313
			L95.3,67.581c-14.082-0.205-22.851,1.215-26.825,4.299c-2.574,1.997-5.632,6.427-9.506,12.037
			c-4.007,5.801-13.375,19.357-16.807,18.478c-1.306-0.346-2.485-1.423-3.511-3.198c-3.831-6.637-5.13-22.842,0.608-44.083
			c0.72-2.662,1.41-5.265,2.079-7.793c5.402-20.383,9.665-36.483,17.813-38.897c2.166-0.642,5.337-1.58,9.035-1.58
			c3.178,0,6.748,0.695,10.407,2.862c10.257,6.084,40.791,6.088,51.048,0c7.916-4.693,15.415-2.476,19.468-1.275
			c8.122,2.405,12.387,18.505,17.787,38.888c0.669,2.528,1.359,5.129,2.079,7.793C174.711,76.353,173.412,92.558,169.581,99.195z"/>
	</g>
</g>
<g>
	<g>
		<rect x="66.568" y="23.901" width="6.827" height="27.307"/>
	</g>
</g>
<g>
	<g>
		<rect x="56.328" y="34.141" width="27.307" height="6.827"/>
	</g>
</g>
<g>
	<g>
		<path d="M136.541,23.908c-8.469,0-15.36,6.89-15.36,15.36c0,8.47,6.892,15.36,15.36,15.36c8.468,0,15.36-6.89,15.36-15.36
			C151.901,30.797,145.01,23.908,136.541,23.908z M136.541,47.801c-4.705,0-8.533-3.828-8.533-8.533
			c0-4.705,3.828-8.533,8.533-8.533c4.705,0,8.533,3.828,8.533,8.533C145.075,43.973,141.247,47.801,136.541,47.801z"/>
	</g>
</g>
<g>
</g>
<g>
</g>
<g>
</g>
<g>
</g>
<g>
</g>
<g>
</g>
<g>
</g>
<g>
</g>
<g>
</g>
<g>
</g>
<g>
</g>
<g>
</g>
<g>
</g>
<g>
</g>
<g>
</g>
</svg>
