<?xml version="1.0" encoding="iso-8859-1"?>
<!-- Generator: Adobe Illustrator 16.0.0, SVG Export Plug-In . SVG Version: 6.00 Build 0)  -->
<!DOCTYPE svg PUBLIC "-//W3C//DTD SVG 1.1//EN" "http://www.w3.org/Graphics/SVG/1.1/DTD/svg11.dtd">
<svg fill="#f2f2f2" version="1.1" id="Capa_1" xmlns="http://www.w3.org/2000/svg" xmlns:xlink="http://www.w3.org/1999/xlink" x="0px" y="0px"
	 width="575.567px" height="575.567px" viewBox="0 0 575.567 575.567" style="enable-background:new 0 0 575.567 575.567;"
	 xml:space="preserve">
<g>
	<g>
		<path d="M287.787,575.567c158.686,0,287.78-129.101,287.78-287.78C575.567,129.102,446.467,0,287.787,0
			C129.108,0,0,129.102,0,287.787C0,446.467,129.102,575.567,287.787,575.567z M287.787,30.6
			c141.812,0,257.181,115.375,257.181,257.187S429.6,544.968,287.787,544.968S30.6,429.6,30.6,287.787S145.975,30.6,287.787,30.6z"
			/>
		<polygon points="369.403,261.93 369.403,327.268 369.403,392.604 389.746,392.604 410.089,392.604 410.089,327.268 
			410.089,261.93 389.746,261.93 		"/>
		<path d="M384.006,239.384c6.016,1.218,14.021-0.336,19.357-3.764c9.627-6.181,12.932-19.535,7.356-29.774
			c-1.622-2.98-6.438-7.595-9.608-9.198c-5.294-2.681-12.724-3.47-18.525-1.958c-11.365,2.962-18.904,14.339-17.001,25.649
			C367.146,229.623,374.783,237.511,384.006,239.384z"/>
		<path d="M465.854,239.384c6.016,1.218,14.021-0.336,19.364-3.764c9.688-6.218,12.968-19.859,7.203-29.939
			c-1.794-3.14-6.285-7.424-9.468-9.04c-5.282-2.674-12.718-3.458-18.514-1.952c-8.77,2.283-15.562,9.743-17.044,18.697
			C445.469,225.063,453.914,236.96,465.854,239.384z"/>
		<path d="M145.197,393.314c3.335,0.918,12.068,0.899,15.673-0.031c10-2.576,17.589-10.991,21.756-24.131
			c1.928-6.077,8.14-28.317,19.927-71.371c5.361-19.59,9.872-35.288,10.019-34.896c0.147,0.398,3.843,13.855,8.213,29.915
			c18.581,68.274,21.494,78.323,24.523,84.486c1.848,3.77,2.932,5.245,6.322,8.635c4.339,4.34,7.234,6.077,12.289,7.399
			c3.635,0.948,11.598,0.937,15.257-0.019c8.77-2.282,16.151-8.923,20.539-18.482c2.589-5.624,11.769-37.527,38.146-132.516
			c5.52-19.878,10.128-36.408,10.238-36.738c0.165-0.471-4.327-0.6-21.438-0.594h-21.646l-17.472,68.446
			c-10.875,42.614-17.601,68.127-17.815,67.608c-0.19-0.459-4.786-17.853-10.214-38.648c-16.108-61.738-20.417-77.62-22.424-82.546
			c-3.286-8.09-9.253-13.592-16.891-15.582c-3.617-0.942-12.032-0.93-15.686,0.019c-6.928,1.805-12.766,6.817-16.108,13.831
			c-2.479,5.202-5.814,17.326-25.447,92.474l-8.268,31.646l-17.393-68.263c-9.565-37.546-17.546-68.428-17.73-68.63
			s-9.926-0.306-21.646-0.239l-21.31,0.123l4.719,16.995c31.493,113.324,40.483,144.958,42.968,151.262
			C128.012,382.867,136.495,390.928,145.197,393.314z"/>
		<polygon points="451.252,261.93 451.252,327.268 451.252,392.604 471.602,392.604 491.944,392.604 491.944,327.268 
			491.944,261.93 471.602,261.93 		"/>
	</g>
</g>
<g>
</g>
<g>
</g>
<g>
</g>
<g>
</g>
<g>
</g>
<g>
</g>
<g>
</g>
<g>
</g>
<g>
</g>
<g>
</g>
<g>
</g>
<g>
</g>
<g>
</g>
<g>
</g>
<g>
</g>
</svg>
